<svg width="18" height="18" viewBox="0 0 18 18" fill="none" xmlns="http://www.w3.org/2000/svg">
<g id="Group 126">
<path id="Vector" d="M9 0C4.03843 0 0 4.03843 0 9C0 13.9616 4.03843 18 9 18C13.9616 18 18 13.9616 18 9C18 4.03843 13.9616 0 9 0ZM9 15.4286C5.45529 15.4286 2.57143 12.5447 2.57143 9C2.57143 5.45529 5.45529 2.57143 9 2.57143C12.5447 2.57143 15.4286 5.45529 15.4286 9C15.4286 12.5447 12.5447 15.4286 9 15.4286Z" fill="#FF5544"/>
<path id="Vector_2" d="M8.99997 5.14307C6.90811 5.14307 5.14282 6.90835 5.14282 9.00021C5.14282 11.0921 6.90811 12.8574 8.99997 12.8574C11.0918 12.8574 12.8571 11.0921 12.8571 9.00021C12.8571 6.90835 11.0918 5.14307 8.99997 5.14307Z" fill="#FF5544"/>
</g>
</svg>
